<?xml version="1.0" standalone="no"?>
<!DOCTYPE svg PUBLIC "-//W3C//DTD SVG 20010904//EN"
 "http://www.w3.org/TR/2001/REC-SVG-20010904/DTD/svg10.dtd">
<svg version="1.0" xmlns="http://www.w3.org/2000/svg"
 width="1568.000000pt" height="1568.000000pt" viewBox="0 0 1568.000000 1568.000000"
 preserveAspectRatio="xMidYMid meet">
<metadata>
Created by potrace 1.14, written by Peter Selinger 2001-2017
</metadata>
<g transform="translate(0.000000,1568.000000) scale(0.100000,-0.100000)"
fill="#000000" stroke="none">
<path d="M5779 11929 c-22 -8 -53 -29 -68 -45 -60 -64 -59 -55 -59 -479 0
-357 1 -392 18 -425 23 -45 52 -75 93 -97 30 -17 185 -18 2963 -20 2470 -1
3189 -4 3189 -13 0 -1 23 -3 50 -5 28 -1 66 -5 85 -8 19 -4 55 -9 80 -13 25
-4 56 -9 70 -10 14 -1 25 -3 25 -4 0 -2 18 -6 65 -15 19 -3 53 -11 75 -17 22
-5 45 -11 50 -13 86 -19 256 -75 342 -111 17 -8 35 -14 39 -14 14 0 319 -153
322 -162 2 -4 8 -8 13 -8 17 0 229 -142 229 -153 0 -6 3 -7 6 -4 6 6 87 -53
174 -128 44 -37 288 -282 315 -315 107 -134 135 -171 135 -180 0 -5 3 -10 8
-10 4 0 32 -39 62 -87 30 -49 57 -90 60 -93 3 -3 12 -18 20 -35 8 -16 20 -37
28 -47 7 -9 14 -23 16 -31 1 -8 7 -21 13 -28 38 -48 188 -422 208 -519 2 -8 4
-16 5 -17 2 -2 3 -6 4 -10 22 -90 51 -227 60 -278 3 -16 7 -41 10 -55 3 -14 8
-52 11 -85 3 -33 8 -78 10 -100 3 -22 7 -94 9 -160 5 -154 16 -181 86 -210 20
-8 800 -13 913 -6 24 1 87 68 88 94 5 86 4 124 -4 134 -4 6 -3 14 3 18 6 3 8
10 5 14 -2 5 -7 55 -10 112 -3 57 -7 115 -9 129 -3 14 -8 54 -11 90 -6 65 -8
82 -20 155 -5 34 -26 138 -41 210 -2 11 -6 31 -9 45 -3 14 -12 52 -20 85 -9
33 -20 78 -26 100 -23 89 -119 364 -154 442 -8 17 -15 34 -15 37 0 9 -144 300
-181 366 -56 100 -103 175 -111 178 -4 2 -8 8 -8 13 0 10 -68 116 -88 138 -7
7 -31 41 -54 75 -23 33 -44 63 -48 66 -3 3 -35 41 -70 85 -88 109 -126 151
-260 285 -135 135 -248 237 -314 285 -16 11 -33 25 -40 30 -33 30 -223 168
-275 200 -9 6 -45 28 -81 49 -36 22 -67 42 -70 45 -19 22 -434 226 -443 219
-2 -2 -10 2 -18 8 -8 7 -45 24 -84 38 -38 15 -78 31 -87 37 -10 5 -25 9 -33 9
-8 0 -23 4 -33 10 -9 5 -62 23 -117 40 -55 17 -114 35 -132 41 -18 5 -41 12
-51 14 -11 2 -37 8 -57 14 -21 6 -42 8 -47 5 -4 -3 -8 -1 -8 3 0 5 -8 9 -18
10 -10 1 -54 9 -98 18 -76 16 -130 25 -166 28 -10 1 -18 4 -18 7 0 3 -12 5
-27 5 -16 1 -55 4 -88 9 -33 4 -80 10 -105 12 -25 2 -81 6 -125 10 -44 3
-1438 7 -3098 8 -2715 1 -3022 0 -3058 -15z"/>
<path d="M6592 10322 c-10 -7 -12 -487 -10 -2368 l3 -2359 568 -1 c312 0 568
2 568 5 1 3 3 362 3 796 l2 790 29 2 c17 1 167 4 335 7 168 2 325 7 350 10 75
10 105 15 105 16 0 1 11 3 25 5 42 5 191 43 260 65 81 26 317 142 347 169 12
12 25 21 28 21 14 0 215 174 215 186 0 2 12 17 28 33 50 51 117 149 165 241
35 65 95 213 101 246 3 12 9 32 16 43 6 12 8 21 6 21 -3 0 -1 12 4 26 6 14 12
40 15 57 2 18 7 43 9 57 3 14 8 36 11 50 18 82 25 359 13 460 -5 36 -10 81
-13 100 -5 49 -13 90 -24 128 -5 18 -10 36 -11 40 -7 50 -68 229 -87 259 -9
13 -13 23 -10 23 7 0 -77 153 -117 211 -101 150 -252 298 -411 401 -71 47
-255 141 -255 131 0 -3 -7 0 -15 7 -8 7 -15 9 -15 5 0 -4 -6 -3 -12 3 -14 11
-183 58 -238 65 -19 3 -35 6 -35 7 0 3 -18 6 -100 15 -33 3 -71 8 -85 11 -19
4 -427 16 -485 15 -52 -1 -291 -2 -295 -1 -16 4 -100 4 -100 0 0 -3 -32 -5
-70 -5 -39 0 -70 4 -70 8 0 5 -4 6 -9 3 -9 -6 -214 -10 -236 -6 -5 1 -13 2
-17 1 -4 0 -40 -1 -80 -1 -40 0 -84 0 -98 -1 -199 -4 -290 -3 -293 3 -1 4 -8
4 -15 0z m1493 -1136 c39 -3 84 -9 100 -12 17 -3 37 -7 45 -8 129 -17 288
-119 362 -231 66 -100 94 -278 64 -407 -15 -65 -49 -150 -71 -175 -5 -7 -26
-33 -45 -57 -52 -65 -143 -121 -244 -150 -48 -14 -97 -26 -109 -26 -12 0 -125
-2 -252 -4 l-230 -4 1 532 c1 292 2 536 3 541 1 11 257 12 376 1z"/>
<path d="M4278 10315 c-2 -2 -43 -6 -93 -9 -49 -3 -103 -8 -120 -12 -16 -3
-48 -7 -70 -9 -22 -2 -40 -4 -40 -5 0 -2 -25 -6 -75 -14 -42 -6 -71 -12 -159
-32 -88 -21 -84 -20 -101 -27 -19 -7 -152 -49 -165 -51 -5 -2 -27 -10 -49 -19
-21 -9 -40 -17 -41 -17 -2 0 -34 -14 -72 -32 -37 -17 -70 -32 -73 -32 -7 -2
-187 -102 -231 -129 -38 -24 -177 -124 -195 -141 -25 -24 -64 -56 -64 -52 0 2
-42 -38 -93 -88 -205 -200 -325 -360 -458 -616 -58 -111 -139 -332 -173 -471
-48 -199 -70 -387 -70 -609 1 -125 9 -278 18 -325 8 -44 19 -111 21 -135 3
-34 54 -240 66 -265 5 -11 11 -29 14 -40 13 -66 159 -369 196 -411 11 -11 19
-23 19 -27 0 -8 51 -88 61 -97 3 -3 24 -31 48 -62 23 -32 47 -58 53 -58 6 0 9
-3 5 -6 -7 -7 38 -58 163 -184 110 -109 182 -173 283 -248 40 -29 80 -60 90
-68 9 -8 19 -14 21 -14 2 0 43 -25 91 -55 77 -48 191 -107 307 -159 40 -18
165 -66 173 -66 5 -1 11 -2 70 -21 22 -8 48 -14 57 -15 9 -1 30 -6 45 -12 24
-9 63 -18 163 -37 14 -3 36 -7 50 -9 61 -12 196 -27 265 -30 28 -2 56 -5 61
-7 12 -6 411 -2 489 5 79 7 157 16 186 21 13 3 40 8 59 11 184 32 451 115 592
184 31 16 58 27 60 25 2 -2 18 9 36 23 l33 27 0 680 c0 374 0 686 0 693 -1 17
-15 4 -51 -48 -14 -19 -32 -42 -40 -52 -8 -9 -19 -23 -25 -30 -125 -166 -272
-297 -425 -379 -25 -13 -48 -28 -51 -32 -3 -5 -10 -9 -15 -9 -12 -1 -32 -8
-81 -29 -23 -11 -48 -19 -56 -19 -7 0 -17 -3 -21 -7 -3 -4 -12 -8 -19 -9 -7
-1 -40 -9 -75 -18 -60 -16 -86 -20 -182 -31 -40 -5 -197 -9 -210 -5 -3 0 -36
3 -75 5 -62 4 -99 9 -115 15 -3 1 -9 2 -13 1 -20 -3 -235 55 -292 78 -101 43
-155 67 -185 84 -19 11 -52 29 -72 40 -21 12 -38 24 -38 29 0 4 -6 8 -12 8 -7
0 -31 16 -52 35 -22 19 -43 35 -46 35 -13 0 -179 171 -185 190 -4 11 -10 20
-15 20 -10 0 -121 176 -124 197 -1 7 -8 19 -14 25 -7 7 -12 19 -12 28 0 9 -4
20 -9 26 -10 11 -59 167 -67 210 -2 16 -7 35 -9 41 -14 42 -24 309 -15 433 6
75 57 278 90 355 73 171 161 310 270 427 75 82 225 208 247 208 7 0 13 4 13 9
0 14 217 116 305 144 70 22 107 31 215 52 85 17 310 23 406 11 150 -18 371
-84 454 -136 8 -5 31 -17 50 -27 34 -16 150 -91 160 -102 3 -4 21 -18 40 -33
61 -46 126 -111 189 -188 33 -41 70 -85 81 -97 11 -12 20 -24 20 -27 0 -12 60
-66 61 -55 0 8 0 317 0 687 l0 674 -23 20 c-43 38 -366 174 -454 191 -11 2
-26 7 -34 10 -21 8 -133 34 -200 47 -87 17 -102 19 -155 25 -27 3 -63 8 -80
11 -32 5 -502 13 -507 9z"/>
<path d="M11698 10315 c-2 -1 -32 -5 -68 -9 -96 -9 -202 -29 -315 -60 -33 -10
-64 -18 -70 -19 -5 -2 -20 -8 -32 -15 -12 -7 -27 -12 -34 -12 -36 0 -238 -114
-368 -207 -39 -28 -163 -154 -195 -198 -16 -22 -34 -44 -40 -50 -26 -23 -162
-275 -149 -275 3 0 1 -6 -4 -12 -9 -12 -31 -70 -37 -101 -2 -7 -6 -19 -9 -27
-3 -8 -8 -28 -12 -45 -3 -16 -10 -50 -15 -74 -30 -136 -32 -385 -5 -526 15
-78 18 -91 27 -102 6 -7 8 -13 4 -13 -9 0 40 -126 76 -194 46 -89 99 -164 170
-237 76 -80 180 -169 196 -169 7 0 12 -4 12 -10 0 -5 6 -10 14 -10 8 0 16 -3
18 -8 10 -24 245 -147 393 -205 114 -44 129 -50 135 -52 19 -4 87 -29 95 -34
6 -3 15 -6 20 -7 13 -2 177 -57 235 -79 98 -37 197 -81 243 -107 26 -15 51
-28 54 -28 9 0 90 -68 128 -108 19 -20 47 -62 61 -92 23 -47 27 -69 27 -150 1
-118 -3 -140 -39 -214 -33 -69 -110 -151 -179 -190 -132 -73 -322 -97 -495
-61 -14 3 -41 8 -60 11 -19 4 -39 9 -45 13 -5 3 -14 6 -20 7 -5 1 -32 12 -60
25 -27 12 -55 23 -61 24 -23 5 -151 95 -206 145 -77 69 -145 163 -213 295 -32
61 -58 111 -59 112 -1 1 -29 -23 -62 -53 -113 -106 -239 -223 -280 -261 -23
-21 -83 -76 -134 -123 -51 -47 -108 -100 -128 -118 -84 -77 -152 -146 -152
-153 0 -8 66 -106 80 -119 3 -3 19 -23 35 -45 52 -70 68 -88 185 -205 63 -63
142 -136 175 -160 33 -25 66 -50 73 -57 43 -41 304 -184 412 -226 14 -5 34
-14 45 -18 23 -10 150 -49 174 -54 9 -2 61 -12 116 -24 133 -28 190 -33 380
-33 148 0 246 5 306 17 13 3 40 7 59 10 122 17 307 75 465 146 17 8 32 16 35
19 3 3 21 13 40 23 54 29 93 51 105 60 5 4 39 29 75 55 79 58 280 256 280 277
0 3 8 14 18 25 23 25 112 175 112 189 0 6 5 11 10 11 6 0 10 5 10 11 0 10 8
31 41 104 17 37 61 180 65 209 2 15 6 37 10 48 3 11 8 32 9 46 2 15 7 52 11
82 14 109 8 351 -11 460 -22 118 -39 179 -80 275 -20 50 -39 98 -42 108 -3 9
-9 17 -13 17 -4 0 -15 18 -25 40 -10 22 -22 40 -27 40 -4 0 -8 5 -8 11 0 21
-108 148 -191 225 -129 118 -364 253 -585 335 -32 12 -70 26 -84 32 -14 6 -27
11 -30 12 -3 1 -12 4 -20 8 -8 3 -64 22 -125 42 -60 21 -119 41 -130 45 -11 5
-60 23 -110 40 -49 17 -109 40 -133 50 -23 11 -49 20 -56 20 -8 0 -16 3 -18 8
-1 4 -24 17 -49 30 -50 25 -164 121 -154 130 3 3 -3 14 -12 24 -13 15 -18 40
-19 106 -1 47 2 93 6 101 4 9 17 37 29 62 36 78 147 171 218 182 10 1 23 5 28
9 31 19 240 29 318 15 226 -40 368 -135 540 -359 46 -61 77 -84 77 -59 0 4 10
19 23 33 12 14 31 38 42 53 11 16 25 33 30 39 6 6 50 63 100 126 49 63 95 119
102 123 7 4 13 13 13 19 0 6 14 26 30 45 17 18 30 38 30 44 0 6 5 7 10 4 6 -3
10 -2 10 4 0 8 116 160 185 244 8 9 15 23 15 30 0 27 -222 224 -340 302 -25
17 -47 32 -50 35 -18 18 -210 113 -290 144 -41 15 -84 32 -95 36 -11 5 -31 11
-45 15 -14 3 -48 12 -77 20 -70 20 -134 32 -263 51 -37 5 -407 14 -412 9z"/>
<path d="M117 7965 c-17 -16 -34 -37 -36 -45 -6 -22 -7 -210 -1 -210 3 0 5
-28 6 -63 2 -125 9 -237 15 -237 3 0 6 -19 8 -42 3 -49 8 -83 10 -83 1 0 4
-18 7 -40 6 -56 12 -96 17 -121 3 -12 8 -37 11 -55 3 -19 10 -54 15 -79 6 -25
13 -58 17 -75 22 -101 98 -368 121 -425 4 -8 7 -17 7 -20 1 -7 35 -100 46
-125 4 -11 18 -45 30 -75 105 -259 300 -622 430 -800 92 -125 192 -257 215
-284 6 -6 35 -40 65 -76 131 -155 460 -469 561 -533 16 -11 29 -23 29 -28 0
-5 6 -9 13 -9 7 0 20 -8 29 -17 24 -26 191 -143 203 -143 3 0 14 -8 25 -17 10
-10 36 -27 57 -38 21 -11 40 -22 43 -26 5 -6 85 -51 165 -93 22 -12 43 -25 47
-31 4 -5 8 -7 8 -2 0 4 18 -4 40 -18 22 -14 46 -25 53 -25 7 0 17 -4 23 -9 12
-12 273 -124 282 -121 1 0 16 -7 33 -16 17 -8 38 -17 47 -19 10 -2 51 -16 92
-30 41 -15 80 -28 85 -30 47 -11 73 -18 90 -25 21 -8 144 -39 180 -45 11 -1
38 -7 60 -13 22 -6 56 -13 75 -16 19 -3 46 -8 60 -10 14 -3 54 -10 90 -15 59
-10 95 -14 200 -27 29 -4 505 -17 548 -15 98 3 324 1 331 -3 5 -4 12 -2 16 4
4 6 10 8 14 6 6 -4 195 -7 281 -5 8 0 123 0 255 -1 132 -1 245 -1 250 0 6 1
15 2 20 1 6 -1 78 -2 160 -1 83 0 175 0 205 0 375 -6 4893 -4 4915 3 17 4 35
9 41 10 39 8 99 86 110 142 10 54 11 695 1 695 -5 0 -5 5 -1 12 11 17 8 76 -6
128 -14 52 -71 111 -124 127 -24 8 -1021 11 -3388 12 -1844 0 -3375 3 -3403 5
-76 6 -184 17 -205 21 -10 2 -40 7 -67 11 -63 9 -67 9 -148 29 -38 9 -79 18
-90 19 -11 2 -27 6 -35 9 -12 5 -91 27 -110 32 -15 3 -117 39 -125 44 -5 3
-15 6 -22 7 -7 1 -27 9 -44 18 -18 9 -36 16 -41 16 -5 0 -34 11 -64 25 -30 14
-59 25 -64 25 -6 0 -10 5 -10 10 0 6 -6 10 -13 10 -12 0 -66 26 -182 90 -85
47 -275 173 -275 182 0 4 -5 8 -11 8 -9 0 -66 41 -105 75 -6 6 -36 30 -65 55
-57 47 -277 265 -319 315 -97 116 -150 185 -150 193 0 6 -4 12 -8 14 -11 4
-152 215 -152 227 0 5 -3 11 -7 13 -5 2 -16 19 -27 38 -30 56 -124 240 -126
245 0 3 -7 20 -16 40 -8 19 -14 37 -15 40 0 2 -11 30 -25 61 -22 51 -90 243
-100 287 -2 9 -6 25 -9 35 -40 153 -80 364 -90 482 -7 74 -17 234 -19 306 -2
69 -5 77 -34 107 l-32 31 -480 1 -480 0 -33 -30z"/>
</g>
</svg>
